<svg xmlns="http://www.w3.org/2000/svg" xmlns:xlink="http://www.w3.org/1999/xlink" width="500" zoomAndPan="magnify" viewBox="0 0 375 374.999991" height="500" preserveAspectRatio="xMidYMid meet" version="1.0"><defs><clipPath id="bfe4ec328d"><path d="M 103.039062 89.980469 L 271.789062 89.980469 L 271.789062 284.980469 L 103.039062 284.980469 Z M 103.039062 89.980469 " clip-rule="nonzero"/></clipPath></defs><rect x="-37.5" width="450" fill="#ffffff" y="-37.499999" height="449.999989" fill-opacity="1"/><rect x="-37.5" width="450" fill="#ffffff" y="-37.499999" height="449.999989" fill-opacity="1"/><g clip-path="url(#bfe4ec328d)"><path fill="#000000" d="M 142.492188 162.015625 L 142.492188 171.5 L 133.003906 171.5 L 133.003906 162.015625 Z M 148.050781 162.015625 L 157.539062 162.015625 L 157.539062 171.5 L 148.050781 171.5 Z M 148.050781 156.457031 L 148.050781 146.96875 L 157.539062 146.96875 L 157.539062 156.457031 Z M 142.492188 156.457031 L 133.003906 156.457031 L 133.003906 146.96875 L 142.492188 146.96875 Z M 187.5 113.882812 L 251.25 150.691406 L 251.25 156.445312 L 271.949219 156.445312 L 271.949219 138.738281 L 229.726562 114.359375 L 187.5 89.980469 L 145.269531 114.359375 L 103.042969 138.738281 L 103.042969 197.847656 L 251.25 197.847656 L 251.25 224.304688 L 187.5 261.109375 L 187.5 218.550781 L 103.042969 218.550781 L 103.042969 236.257812 L 145.269531 260.636719 L 187.5 285.015625 L 229.726562 260.636719 L 271.949219 236.257812 L 271.949219 177.144531 L 187.5 177.144531 Z M 187.5 113.882812 " fill-opacity="1" fill-rule="evenodd"/></g></svg>